<svg xmlns="http://www.w3.org/2000/svg" version="1.1" xmlns:xlink="http://www.w3.org/1999/xlink" xmlns:svgjs="http://svgjs.dev/svgjs" width="1500" height="1500" viewBox="0 0 1500 1500"><rect width="1500" height="1500" fill="#ffffff"></rect><g transform="matrix(0.6666666666666666,0,0,0.6666666666666666,249.39393939393938,621.2578795226483)"><svg viewBox="0 0 396 102" data-background-color="#ffffff" preserveAspectRatio="xMidYMid meet" height="386" width="1500" xmlns="http://www.w3.org/2000/svg" xmlns:xlink="http://www.w3.org/1999/xlink"><g id="tight-bounds" transform="matrix(1,0,0,1,0.2400000000000091,0.02990785760314907)"><svg viewBox="0 0 395.52 101.94018428479372" height="101.94018428479372" width="395.52"><g><svg viewBox="0 0 582.1686908512123 150.0464796475771" height="101.94018428479372" width="395.52"><g transform="matrix(1,0,0,1,186.64869085121236,20.737248634361237)"><svg viewBox="0 0 395.52 108.57198237885461" height="108.57198237885461" width="395.52"><g id="textblocktransform"><svg viewBox="0 0 395.52 108.57198237885461" height="108.57198237885461" width="395.52" id="textblock"><g><svg viewBox="0 0 395.52 108.57198237885461" height="108.57198237885461" width="395.52"><g transform="matrix(1,0,0,1,0,0)"><svg width="395.52" viewBox="2.34 -38.01 177.32999999999998 48.68" height="108.57198237885461" data-palette-color="#332885"><path d="M20.53-26.42L24.68-26.42 24.68-0.56Q24.68 2.93 23.25 5.4 21.83 7.86 19.3 9.14 16.77 10.42 13.48 10.42L13.48 10.42Q12.11 10.42 10.27 10 8.42 9.57 6.65 8.56 4.88 7.54 3.69 5.83L3.69 5.83 6.05 3.17Q7.71 5.18 9.53 5.97 11.35 6.76 13.13 6.76L13.13 6.76Q16.33 6.76 18.23 4.94 20.12 3.13 20.12-0.34L20.12-0.34 20.12-20.61 20.53-26.42ZM2.34-12.92L2.34-13.43Q2.34-17.46 3.61-20.5 4.88-23.54 7.23-25.22 9.57-26.9 12.79-26.9L12.79-26.9Q15.28-26.9 17.15-26.04 19.02-25.17 20.32-23.54 21.63-21.9 22.4-19.58 23.17-17.26 23.46-14.36L23.46-14.36 23.46-11.99Q23.1-8.15 21.84-5.36 20.58-2.56 18.33-1.04 16.09 0.49 12.74 0.49L12.74 0.49Q9.57 0.49 7.24-1.26 4.91-3 3.63-6.03 2.34-9.06 2.34-12.92L2.34-12.92ZM6.91-13.43L6.91-12.92Q6.91-10.28 7.63-8.11 8.35-5.93 9.89-4.63 11.43-3.32 13.87-3.32L13.87-3.32Q16.11-3.32 17.55-4.27 18.99-5.22 19.87-6.79 20.75-8.35 21.24-10.18L21.24-10.18 21.24-16.11Q20.95-17.46 20.41-18.71 19.87-19.97 18.99-20.96 18.12-21.95 16.86-22.53 15.6-23.12 13.92-23.12L13.92-23.12Q11.45-23.12 9.9-21.8 8.35-20.48 7.63-18.27 6.91-16.06 6.91-13.43L6.91-13.43ZM36.06-22.27L36.06 0 31.49 0 31.49-26.42 35.94-26.42 36.06-22.27ZM44.28-26.56L44.28-22.39Q43.7-22.51 43.2-22.55 42.7-22.58 42.06-22.58L42.06-22.58Q39.99-22.58 38.56-21.73 37.13-20.87 36.35-19.37 35.57-17.87 35.37-15.94L35.37-15.94 34.08-15.21Q34.08-18.41 34.93-21.06 35.79-23.71 37.61-25.31 39.43-26.9 42.28-26.9L42.28-26.9Q42.75-26.9 43.39-26.79 44.04-26.68 44.28-26.56L44.28-26.56ZM63.25-4.52L63.25-18.12Q63.25-20.48 61.85-21.89 60.44-23.29 57.71-23.29L57.71-23.29Q56.03-23.29 54.74-22.71 53.46-22.12 52.75-21.17 52.05-20.21 52.05-19.09L52.05-19.09 47.48-19.09Q47.48-21 48.77-22.79 50.07-24.58 52.42-25.74 54.78-26.9 57.98-26.9L57.98-26.9Q60.86-26.9 63.08-25.93 65.3-24.95 66.56-22.99 67.82-21.02 67.82-18.07L67.82-18.07 67.82-5.76Q67.82-4.44 68.05-2.95 68.28-1.46 68.75-0.39L68.75-0.39 68.75 0 63.98 0Q63.64-0.78 63.45-2.09 63.25-3.39 63.25-4.52L63.25-4.52ZM64.03-16.02L64.08-12.84 59.54-12.84Q55.68-12.84 53.58-11.62 51.48-10.4 51.48-7.96L51.48-7.96Q51.48-6.05 52.77-4.74 54.05-3.42 56.51-3.42L56.51-3.42Q58.59-3.42 60.18-4.3 61.76-5.18 62.69-6.47 63.62-7.76 63.69-8.96L63.69-8.96 65.64-6.79Q65.47-5.76 64.72-4.52 63.96-3.27 62.7-2.14 61.45-1 59.72-0.26 58 0.49 55.85 0.49L55.85 0.49Q53.17 0.49 51.15-0.55 49.14-1.59 48.03-3.37 46.92-5.15 46.92-7.32L46.92-7.32Q46.92-11.6 50.14-13.81 53.36-16.02 58.81-16.02L58.81-16.02 64.03-16.02ZM79.46-21.34L79.46 10.16 74.89 10.16 74.89-26.42 79.05-26.42 79.46-21.34ZM97.23-13.43L97.23-12.92Q97.23-9.06 96.04-6.03 94.84-3 92.56-1.26 90.28 0.49 87 0.49L87 0.49Q83.61 0.49 81.32-0.98 79.02-2.44 77.73-5.14 76.43-7.84 76.04-11.52L76.04-11.52 76.04-14.36Q76.43-18.24 77.74-21.04 79.05-23.85 81.33-25.38 83.61-26.9 86.93-26.9L86.93-26.9Q90.25-26.9 92.55-25.22 94.84-23.54 96.04-20.5 97.23-17.46 97.23-13.43L97.23-13.43ZM92.67-12.92L92.67-13.43Q92.67-16.06 91.92-18.27 91.18-20.48 89.6-21.8 88.03-23.12 85.56-23.12L85.56-23.12Q83.88-23.12 82.63-22.53 81.39-21.95 80.51-20.96 79.63-19.97 79.08-18.71 78.53-17.46 78.26-16.11L78.26-16.11 78.26-9.74Q78.75-8.03 79.62-6.53 80.49-5.03 81.94-4.1 83.39-3.17 85.61-3.17L85.61-3.17Q88.05-3.17 89.62-4.52 91.18-5.86 91.92-8.07 92.67-10.28 92.67-12.92L92.67-12.92ZM107.53-37.5L107.53 0 102.97 0 102.97-37.5 107.53-37.5ZM106.46-14.23L104.56-14.31Q104.6-17.92 105.95-20.76 107.29-23.61 109.69-25.26 112.1-26.9 115.3-26.9L115.3-26.9Q117.91-26.9 119.8-25.94 121.69-24.98 122.73-22.88 123.77-20.78 123.77-17.31L123.77-17.31 123.77 0 119.2 0 119.2-17.36Q119.2-19.43 118.61-20.7 118.01-21.97 116.84-22.55 115.66-23.12 113.95-23.12L113.95-23.12Q112.27-23.12 110.9-22.41 109.54-21.7 108.53-20.46 107.53-19.21 107-17.61 106.46-16.02 106.46-14.23L106.46-14.23ZM135.46-26.42L135.46 0 130.9 0 130.9-26.42 135.46-26.42ZM130.55-33.45L130.55-33.45Q130.55-34.52 131.23-35.28 131.9-36.04 133.22-36.04L133.22-36.04Q134.53-36.04 135.23-35.28 135.93-34.52 135.93-33.45L135.93-33.45Q135.93-32.4 135.23-31.65 134.53-30.91 133.22-30.91L133.22-30.91Q131.9-30.91 131.23-31.65 130.55-32.4 130.55-33.45ZM149.45 0L144.88 0 144.88-29.22Q144.88-33.47 147.21-35.74 149.55-38.01 153.6-38.01L153.6-38.01Q154.38-38.01 155.16-37.92 155.94-37.82 156.7-37.62L156.7-37.62 156.45-33.98Q155.94-34.08 155.3-34.13 154.65-34.18 154.01-34.18L154.01-34.18Q151.86-34.18 150.66-32.9 149.45-31.62 149.45-29.22L149.45-29.22 149.45 0ZM155.06-26.42L155.06-22.97 140.73-22.97 140.73-26.42 155.06-26.42ZM167.46-2.73L174.81-26.42 179.67-26.42 169.07 4.08Q168.71 5.05 168.11 6.19 167.51 7.32 166.6 8.35 165.68 9.38 164.36 10.02 163.04 10.67 161.24 10.67L161.24 10.67Q160.87 10.67 160.36 10.6 159.85 10.52 159.38 10.44 158.92 10.35 158.67 10.28L158.67 10.28 158.67 6.64Q158.87 6.67 159.3 6.71 159.72 6.76 159.89 6.76L159.89 6.76Q162.19 6.76 163.48 5.81 164.78 4.86 165.58 2.42L165.58 2.42 167.46-2.73ZM162.14-26.42L168.95-5.88 170.12-1.12 166.85 0.51 157.16-26.42 162.14-26.42Z" opacity="1" transform="matrix(1,0,0,1,0,0)" fill="#000000" class="wordmark-text-0" data-fill-palette-color="primary" id="text-0"></path></svg></g></svg></g></svg></g></svg></g><g><svg viewBox="0 0 161.0174515391419 150.0464796475771" height="150.0464796475771" width="161.0174515391419"><g><svg xmlns="http://www.w3.org/2000/svg" xmlns:xlink="http://www.w3.org/1999/xlink" version="1.1" x="0" y="0" viewBox="215.9410000000001 218.66999999999993 80.12000000000006 74.66100000000009" enable-background="new 206 206 100 100" xml:space="preserve" height="150.0464796475771" width="161.0174515391419" class="icon-icon-0" data-fill-palette-color="accent" id="icon-0"><path d="M286.361 249.016c-4.71 0-8.646 3.375-9.52 7.834l-16.649-2.787c0.07-0.504 0.109-1.019 0.109-1.543 0-2.683-0.968-5.142-2.572-7.049l15.318-13.527c1.077 1.113 2.584 1.806 4.251 1.806 0.098 0 0.193-0.003 0.29-0.007 0 0 0 0 0.002 0s0.002 0 0.004 0c3.127-0.155 5.623-2.748 5.623-5.913 0-2.209-1.218-4.138-3.015-5.155-0.005-0.002-0.009-0.005-0.015-0.007-0.854-0.48-1.842-0.756-2.89-0.756-0.176 0-0.351 0.009-0.521 0.023h-0.006c-2.841 0.252-5.113 2.521-5.367 5.362 0 0.005-0.002 0.011-0.002 0.014-0.015 0.171-0.023 0.344-0.023 0.519 0 1.404 0.491 2.694 1.312 3.711l-15.319 13.525c-2.004-2.159-4.865-3.513-8.036-3.513-2.406 0-4.633 0.779-6.442 2.099l-8.891-11.624c1.442-1.19 2.435-2.906 2.685-4.851 0.002-0.007 0.004-0.012 0.004-0.02 0.038-0.312 0.061-0.626 0.061-0.949 0-0.959-0.182-1.878-0.511-2.722-0.003-0.013-0.007-0.023-0.015-0.036-0.371-0.941-0.927-1.792-1.622-2.504-0.003-0.003-0.005-0.009-0.009-0.013-0.004-0.003-0.007-0.003-0.011-0.007-0.697-0.709-1.534-1.282-2.465-1.672-0.011-0.005-0.02-0.009-0.03-0.013-0.888-0.367-1.858-0.571-2.877-0.571-4.157 0-7.539 3.381-7.539 7.539 0 1.021 0.205 1.995 0.574 2.885 0.002 0.005 0.003 0.011 0.007 0.018 0.389 0.931 0.961 1.766 1.669 2.465 0.004 0.005 0.005 0.011 0.011 0.016s0.015 0.009 0.022 0.014c0.709 0.693 1.557 1.246 2.495 1.617 0.013 0.005 0.027 0.011 0.04 0.014 0.845 0.33 1.763 0.511 2.721 0.511 0.322 0 0.638-0.023 0.949-0.061 0 0 0.001 0 0.003 0 0.007 0 0.013-0.003 0.02-0.003 1.251-0.162 2.408-0.632 3.389-1.331l8.893 11.626c-2.496 2.013-4.097 5.092-4.097 8.54 0 2.748 1.018 5.26 2.692 7.186l-12.2 11.133c-0.092-0.096-0.187-0.188-0.284-0.275-0.004-0.006-0.006-0.011-0.009-0.015-0.005-0.005-0.013-0.007-0.018-0.013-0.742-0.673-1.619-1.2-2.583-1.539-0.015-0.007-0.029-0.011-0.045-0.017-0.766-0.263-1.586-0.406-2.44-0.406-4.157 0-7.541 3.383-7.541 7.54 0 0.854 0.146 1.673 0.407 2.438 0.005 0.016 0.009 0.032 0.017 0.047 0.338 0.965 0.864 1.84 1.538 2.58 0.005 0.007 0.009 0.016 0.014 0.021 0.005 0.005 0.011 0.007 0.016 0.011 0.668 0.728 1.479 1.321 2.384 1.743 0.009 0.003 0.017 0.007 0.025 0.011 0.956 0.44 2.021 0.688 3.14 0.688 0.104 0 0.209-0.004 0.312-0.007h0.003c3.907-0.162 7.055-3.31 7.217-7.217 0.003-0.104 0.007-0.211 0.007-0.315 0-1.121-0.247-2.186-0.688-3.142-0.002-0.007-0.005-0.015-0.009-0.021-0.29-0.621-0.659-1.197-1.098-1.714l12.2-11.133c1.999 2.083 4.806 3.383 7.912 3.383 1.314 0 2.575-0.232 3.743-0.659l7.5 19.178c-2.066 0.924-3.513 2.998-3.513 5.407 0 3.262 2.654 5.918 5.919 5.918 3.264 0 5.92-2.656 5.92-5.918 0-3.265-2.656-5.92-5.92-5.92-0.665 0-1.306 0.111-1.901 0.314l-7.503-19.176c3.329-1.402 5.823-4.403 6.521-8.035l16.652 2.787c-0.061 0.436-0.095 0.881-0.095 1.332 0 5.35 4.352 9.701 9.701 9.701s9.699-4.352 9.699-9.701C296.06 253.368 291.711 249.016 286.361 249.016zM278.338 233.107l4.238-4.238C282.157 231.004 280.471 232.687 278.338 233.107zM275.984 222.614l-3.901 3.901C272.563 224.603 274.072 223.096 275.984 222.614zM272.456 230.17c-0.344-0.708-0.537-1.501-0.537-2.341 0-0.135 0.008-0.27 0.017-0.403l4.959-4.958c0.133-0.011 0.268-0.016 0.404-0.016 0.838 0 1.632 0.192 2.339 0.536l-0.918 0.918c-0.106 0.104-0.106 0.275 0 0.382 0.052 0.052 0.123 0.079 0.191 0.079s0.138-0.027 0.19-0.079l1.028-1.028c0.66 0.411 1.226 0.96 1.656 1.608l-1.088 1.087c-0.105 0.104-0.105 0.276 0 0.382 0.053 0.052 0.123 0.079 0.191 0.079 0.07 0 0.139-0.027 0.19-0.079l0.988-0.988c0.39 0.744 0.609 1.586 0.609 2.481 0 0.06-0.002 0.119-0.004 0.178l-5.196 5.196c-0.06 0.002-0.119 0.005-0.179 0.005-0.896 0-1.739-0.221-2.482-0.61l4.474-4.474c0.106-0.106 0.106-0.275 0-0.382-0.105-0.106-0.277-0.106-0.381 0l-4.573 4.573c-0.648-0.428-1.198-0.994-1.608-1.655l4.112-4.112c0.106-0.104 0.106-0.275 0-0.381-0.104-0.106-0.275-0.106-0.382 0L272.456 230.17zM227.718 219.372l-5.344 5.344C222.956 222.053 225.055 219.954 227.718 219.372zM224.513 231.394l4.508-4.508c0.106-0.106 0.106-0.277 0-0.382-0.104-0.106-0.275-0.106-0.382 0l-4.51 4.51c-0.54-0.569-0.983-1.229-1.309-1.954l3.75-3.75c0.106-0.106 0.106-0.277 0-0.381-0.106-0.106-0.275-0.106-0.381 0l-3.585 3.584c-0.254-0.722-0.393-1.496-0.393-2.305 0-0.2 0.011-0.398 0.027-0.594l6.377-6.377c0.196-0.017 0.395-0.027 0.594-0.027 0.809 0 1.583 0.139 2.305 0.391l-3.066 3.066c-0.106 0.104-0.106 0.275 0 0.382 0.052 0.052 0.123 0.079 0.191 0.079s0.139-0.027 0.191-0.079l3.23-3.23c0.726 0.324 1.387 0.769 1.958 1.309l-3.59 3.588c-0.106 0.104-0.106 0.276 0 0.382 0.052 0.052 0.123 0.079 0.191 0.079s0.139-0.027 0.191-0.079l3.586-3.585c0.529 0.583 0.961 1.255 1.271 1.992l-9.161 9.161C225.77 232.356 225.096 231.924 224.513 231.394zM230.983 232.983l0.385-0.387c0.106-0.104 0.106-0.275 0-0.382-0.106-0.106-0.275-0.106-0.382 0l-0.945 0.945c-0.272 0.031-0.549 0.05-0.83 0.05-0.747 0-1.469-0.121-2.146-0.338l8.808-8.808c0.22 0.677 0.338 1.397 0.338 2.146 0 0.281-0.018 0.559-0.05 0.83l-3.302 3.302c-0.106 0.104-0.106 0.275 0 0.382 0.052 0.052 0.123 0.079 0.191 0.079s0.139-0.027 0.191-0.079l2.744-2.744C235.345 230.419 233.42 232.343 230.983 232.983zM216.479 276.114c0-3.052 1.964-5.651 4.694-6.607l-3.444 3.444c-0.106 0.104-0.106 0.275 0 0.382 0.052 0.052 0.123 0.079 0.191 0.079s0.139-0.027 0.191-0.079l4.102-4.102c0.411-0.076 0.833-0.117 1.268-0.117 0.643 0 1.266 0.09 1.858 0.252l-8.605 8.606C216.57 277.379 216.479 276.757 216.479 276.114zM230.478 276.114c0 0.066-0.001 0.134-0.003 0.2l-0.646 0.646c-0.106 0.104-0.106 0.275 0 0.382 0.052 0.052 0.123 0.079 0.191 0.079s0.139-0.027 0.191-0.079l0.191-0.191c-0.452 3.03-2.854 5.435-5.886 5.885l3.49-3.49c0.106-0.105 0.106-0.275 0-0.381-0.106-0.106-0.276-0.106-0.382 0l-3.943 3.942c-0.066 0.002-0.133 0.006-0.2 0.006-0.909 0-1.777-0.177-2.575-0.493l9.082-9.082C230.303 274.335 230.478 275.204 230.478 276.114zM229.751 273.01l-9.375 9.375c-0.706-0.352-1.343-0.817-1.891-1.374l5.283-5.282c0.106-0.106 0.106-0.275 0-0.382s-0.275-0.106-0.382 0l-5.265 5.265c-0.511-0.608-0.92-1.304-1.203-2.062l8.997-8.997c0.758 0.28 1.453 0.691 2.062 1.202l-2.715 2.716c-0.106 0.105-0.106 0.275 0 0.382 0.052 0.052 0.122 0.079 0.19 0.079 0.069 0 0.139-0.027 0.191-0.079l2.733-2.733C228.933 271.664 229.4 272.304 229.751 273.01zM249.335 244.344c2.339 0 4.451 0.989 5.943 2.569l-1.35 1.192c-1.16-1.208-2.789-1.962-4.593-1.962-1.358 0-2.618 0.429-3.653 1.156l-1.093-1.429C245.927 244.909 247.565 244.344 249.335 244.344zM241.159 252.52c0-2.546 1.168-4.824 3-6.325l1.095 1.432c-1.401 1.17-2.293 2.929-2.293 4.894 0 1.556 0.56 2.983 1.491 4.093l-1.329 1.213C241.899 256.396 241.159 254.544 241.159 252.52zM249.335 260.696c-2.292 0-4.364-0.948-5.85-2.472l1.329-1.212c1.156 1.163 2.756 1.884 4.521 1.884 0.724 0 1.419-0.123 2.069-0.346l0.657 1.678C251.208 260.531 250.291 260.696 249.335 260.696zM252.564 260.03l-0.658-1.678c1.85-0.817 3.239-2.49 3.668-4.514l1.777 0.297C256.816 256.79 254.992 258.982 252.564 260.03zM257.437 253.602l-1.775-0.297c0.03-0.257 0.048-0.519 0.048-0.785 0-1.52-0.535-2.915-1.424-4.011l1.351-1.192c1.17 1.416 1.875 3.229 1.875 5.204C257.511 252.887 257.484 253.247 257.437 253.602zM286.361 267.876c-5.051 0-9.161-4.11-9.161-9.161 0-0.421 0.032-0.837 0.088-1.244l1.6 0.269c-0.042 0.32-0.067 0.645-0.067 0.976 0 4.158 3.384 7.541 7.541 7.541s7.539-3.383 7.539-7.541c0-4.157-3.382-7.539-7.539-7.539-3.641 0-6.688 2.593-7.388 6.03l-1.599-0.268c0.83-4.203 4.543-7.382 8.986-7.382 5.05 0 9.159 4.108 9.159 9.159C295.52 263.766 291.411 267.876 286.361 267.876z" fill="#000000" data-fill-palette-color="accent"></path></svg></g></svg></g></svg></g><defs></defs></svg><rect width="395.52" height="101.94018428479372" fill="none" stroke="none" visibility="hidden"></rect></g></svg></g></svg>